<svg width="187" height="28" viewBox="0 0 187 28" fill="none" xmlns="http://www.w3.org/2000/svg">
<path d="M21.8608 9.0648C21.6101 6.70853 20.7829 4.87867 19.3792 3.5752C18.0005 2.27173 16.2208 1.62 14.04 1.62C12.7115 1.62 11.4581 1.90827 10.28 2.4848C9.12693 3.03627 8.11173 3.8384 7.2344 4.8912C6.35707 5.944 5.66773 7.20987 5.1664 8.6888C4.66507 10.1677 4.4144 11.8347 4.4144 13.6896C4.4144 16.0459 4.8656 18.1264 5.768 19.9312C6.6704 21.736 7.88613 23.1397 9.4152 24.1424C10.9443 25.1451 12.6363 25.6464 14.4912 25.6464C16.1205 25.6464 17.7248 25.2829 19.304 24.556C20.8832 23.804 22.1741 22.7261 23.1768 21.3224L24.1544 22.112C23.0765 23.5909 21.9109 24.7315 20.6576 25.5336C19.4043 26.3357 18.1509 26.8747 16.8976 27.1504C15.6693 27.4512 14.5413 27.6016 13.5136 27.6016C11.6336 27.6016 9.904 27.2632 8.3248 26.5864C6.77067 25.9096 5.41707 24.9696 4.264 23.7664C3.136 22.5381 2.25867 21.1219 1.632 19.5176C1.0304 17.8883 0.7296 16.1336 0.7296 14.2536C0.7296 12.4739 0.9928 10.7443 1.5192 9.0648C2.07067 7.38533 2.88533 5.8688 3.9632 4.5152C5.04107 3.1616 6.39467 2.08373 8.024 1.2816C9.6784 0.479467 11.596 0.0784003 13.7768 0.0784003C15.1805 0.0784003 16.5091 0.2664 17.7624 0.6424C19.0157 1.0184 20.2189 1.59493 21.372 2.372L21.184 0.341599H23.2144V9.0648H21.8608ZM27.3586 27V25.7592C28.3112 25.7091 28.9629 25.496 29.3138 25.12C29.6648 24.7189 29.8528 24.18 29.8778 23.5032C29.928 22.8013 29.953 22.0117 29.953 21.1344V4.8912C29.953 4.38987 29.9656 3.9136 29.9906 3.4624C30.0157 2.98613 30.0408 2.56 30.0658 2.184C29.6146 2.20907 29.1634 2.23413 28.7122 2.2592C28.261 2.28427 27.8098 2.30933 27.3586 2.3344V0.679999H35.8186V1.9208C34.8912 1.94587 34.2394 2.15893 33.8634 2.56C33.5125 2.96107 33.312 3.5 33.2618 4.1768C33.2368 4.8536 33.2242 5.6432 33.2242 6.5456V22.676C33.2242 23.3528 33.2117 23.9293 33.1866 24.4056C33.1866 24.8819 33.1616 25.2829 33.1114 25.6088L40.1426 25.496C41.7218 25.4709 42.9125 24.9696 43.7146 23.992C44.5418 23.0144 44.9554 21.4227 44.9554 19.2168H46.2338L46.0082 27H27.3586ZM61.4089 27.6016C59.0276 27.6016 56.9847 27.2005 55.2801 26.3984C53.5756 25.5963 52.1844 24.5309 51.1065 23.2024C50.0537 21.8488 49.2767 20.3573 48.7753 18.728C48.274 17.0987 48.0233 15.4693 48.0233 13.84C48.0233 12.2608 48.2865 10.6691 48.8129 9.0648C49.3393 7.43547 50.1415 5.944 51.2193 4.5904C52.3223 3.2368 53.6884 2.1464 55.3177 1.3192C56.9721 0.492 58.9023 0.0784003 61.1081 0.0784003C63.4143 0.0784003 65.4071 0.492 67.0865 1.3192C68.766 2.1464 70.1447 3.24933 71.2225 4.628C72.3255 5.9816 73.1401 7.46053 73.6665 9.0648C74.218 10.6691 74.4937 12.2608 74.4937 13.84C74.4937 15.3941 74.2305 16.9859 73.7041 18.6152C73.1777 20.2195 72.3631 21.7109 71.2601 23.0896C70.1823 24.4432 68.8287 25.5336 67.1993 26.3608C65.57 27.188 63.6399 27.6016 61.4089 27.6016ZM61.4841 26.06C63.0383 26.06 64.3919 25.7341 65.5449 25.0824C66.698 24.4056 67.6505 23.5157 68.4025 22.4128C69.1796 21.2848 69.7561 20.044 70.1321 18.6904C70.5332 17.3117 70.7337 15.9331 70.7337 14.5544C70.7337 13.0003 70.5207 11.4587 70.0945 9.9296C69.6684 8.40053 69.0417 7.00933 68.2145 5.756C67.3873 4.50267 66.3596 3.5 65.1313 2.748C63.9281 1.97093 62.5495 1.5824 60.9953 1.5824C59.4412 1.5824 58.0751 1.9208 56.8969 2.5976C55.7439 3.2744 54.7788 4.1768 54.0017 5.3048C53.2497 6.40773 52.6732 7.64853 52.2721 9.0272C51.8961 10.3808 51.7081 11.7595 51.7081 13.1632C51.7081 14.5419 51.8961 15.9832 52.2721 17.4872C52.6732 18.9912 53.2748 20.3949 54.0769 21.6984C54.8791 23.0019 55.8943 24.0547 57.1225 24.8568C58.3508 25.6589 59.8047 26.06 61.4841 26.06ZM97.4759 8.6136C97.4508 7.13467 97.3004 5.9064 97.0247 4.9288C96.7489 3.9512 96.2601 3.22427 95.5583 2.748C94.8815 2.24667 93.8913 2.00853 92.5879 2.0336H89.3919L89.3543 22.5256C89.3543 23.2024 89.3417 23.7915 89.3167 24.2928C89.3167 24.7691 89.2916 25.1701 89.2415 25.496C89.7679 25.4709 90.2817 25.4459 90.7831 25.4208C91.3095 25.3957 91.8359 25.3707 92.3623 25.3456V27H83.5263V25.7592C84.4788 25.7091 85.118 25.4835 85.4439 25.0824C85.7948 24.6813 85.9828 24.1424 86.0079 23.4656C86.058 22.7637 86.0831 21.9867 86.0831 21.1344L86.1207 2.0712L82.2479 2.1088C80.6687 2.1088 79.5532 2.6352 78.9015 3.688C78.2497 4.7408 77.9239 6.38267 77.9239 8.6136H76.5327L76.7583 0.679999H98.6791L98.9047 8.6136H97.4759ZM101.824 27V25.7592C102.777 25.7091 103.429 25.496 103.779 25.12C104.13 24.7189 104.318 24.18 104.343 23.5032C104.394 22.8013 104.419 22.0117 104.419 21.1344V4.8912C104.419 4.38987 104.431 3.9136 104.456 3.4624C104.481 2.98613 104.506 2.56 104.531 2.184C104.08 2.20907 103.629 2.23413 103.178 2.2592C102.727 2.28427 102.275 2.30933 101.824 2.3344V0.679999H110.284V1.9208C109.357 1.94587 108.705 2.15893 108.329 2.56C107.978 2.96107 107.778 3.5 107.727 4.1768C107.702 4.8536 107.69 5.6432 107.69 6.5456V12.7872H121.151V4.8912C121.151 4.38987 121.163 3.9136 121.188 3.4624C121.213 2.98613 121.238 2.56 121.263 2.184C120.812 2.20907 120.361 2.23413 119.91 2.2592C119.459 2.28427 119.007 2.30933 118.556 2.3344V0.679999H127.016V1.9208C126.089 1.94587 125.437 2.15893 125.061 2.56C124.71 2.96107 124.51 3.5 124.459 4.1768C124.434 4.8536 124.422 5.6432 124.422 6.5456V22.5256C124.422 23.2024 124.409 23.7915 124.384 24.2928C124.384 24.7691 124.359 25.1701 124.309 25.496C124.76 25.4709 125.211 25.4459 125.663 25.4208C126.114 25.3957 126.565 25.3707 127.016 25.3456V27H118.556V25.7592C119.509 25.7091 120.161 25.496 120.511 25.12C120.862 24.7189 121.05 24.18 121.075 23.5032C121.126 22.8013 121.151 22.0117 121.151 21.1344V14.2912L107.69 14.4416V22.5256C107.69 23.2024 107.677 23.7915 107.652 24.2928C107.652 24.7691 107.627 25.1701 107.577 25.496C108.028 25.4709 108.479 25.4459 108.931 25.4208C109.382 25.3957 109.833 25.3707 110.284 25.3456V27H101.824ZM139.623 1.9208C138.695 1.94587 138.043 2.15893 137.667 2.56C137.316 2.96107 137.116 3.5 137.066 4.1768C137.041 4.8536 137.028 5.6432 137.028 6.5456V22.5256C137.028 23.2024 137.016 23.7915 136.991 24.2928C136.991 24.7691 136.965 25.1701 136.915 25.496C137.367 25.4709 137.818 25.4459 138.269 25.4208C138.72 25.3957 139.171 25.3707 139.623 25.3456V27H131.163V25.7592C132.115 25.7091 132.767 25.496 133.118 25.12C133.469 24.7189 133.657 24.18 133.682 23.5032C133.732 22.8013 133.757 22.0117 133.757 21.1344V4.8912C133.757 4.38987 133.769 3.9136 133.795 3.4624C133.82 2.98613 133.845 2.56 133.87 2.184C133.419 2.20907 132.967 2.23413 132.516 2.2592C132.065 2.28427 131.614 2.30933 131.163 2.3344V0.679999H139.623V1.9208ZM143.757 27V25.7592C144.71 25.7091 145.361 25.496 145.712 25.12C146.063 24.7189 146.251 24.18 146.276 23.5032C146.326 22.8013 146.351 22.0117 146.351 21.1344V4.8912C146.351 4.38987 146.364 3.9136 146.389 3.4624C146.414 2.98613 146.439 2.56 146.464 2.184C146.013 2.20907 145.562 2.23413 145.111 2.2592C144.659 2.28427 144.208 2.30933 143.757 2.3344V0.679999H161.203L161.391 7.26H160.151C160.151 5.78107 159.913 4.6656 159.436 3.9136C158.96 3.13653 158.333 2.62267 157.556 2.372C156.779 2.09627 155.914 1.97093 154.962 1.996L152.217 2.0712C151.29 2.09627 150.65 2.32187 150.299 2.748C149.949 3.14907 149.748 3.688 149.698 4.3648C149.648 5.0416 149.623 5.81867 149.623 6.696V13.1632L156.165 13.2008L155.902 9.9296H157.556V17.8632H156.353C156.353 16.7352 156.19 15.9331 155.864 15.4568C155.563 14.9805 155.087 14.6923 154.435 14.592C153.784 14.4917 152.931 14.4667 151.879 14.5168L149.623 14.6296V22.5256C149.623 23.2024 149.61 23.7915 149.585 24.2928C149.585 24.7691 149.56 25.1701 149.51 25.496C149.936 25.4709 150.362 25.4584 150.788 25.4584C151.214 25.4333 151.641 25.4083 152.067 25.3832C152.493 25.3581 152.919 25.3456 153.345 25.3456V27H143.757ZM170.372 27V25.7592C171.325 25.7091 171.964 25.4835 172.29 25.0824C172.641 24.6813 172.829 24.1424 172.854 23.4656C172.904 22.7637 172.929 21.9867 172.929 21.1344L172.967 16.848L166.424 6.508C165.798 5.50533 165.321 4.6656 164.995 3.9888C164.695 3.312 164.494 2.73547 164.394 2.2592C163.993 2.28427 163.604 2.2968 163.228 2.2968C162.852 2.2968 162.464 2.30933 162.063 2.3344V0.679999H171.763V1.9208C170.61 1.9208 169.808 2.09627 169.357 2.4472C168.906 2.79813 168.73 3.28693 168.831 3.9136C168.956 4.5152 169.269 5.21707 169.771 6.0192L172.779 10.7568C173.004 11.1077 173.242 11.4712 173.493 11.8472C173.744 12.2232 173.994 12.6117 174.245 13.0128C174.521 13.3888 174.809 13.7899 175.11 14.216H175.185C175.461 13.6645 175.737 13.1381 176.012 12.6368C176.288 12.1104 176.551 11.6091 176.802 11.1328L179.998 5.0792C180.123 4.82853 180.274 4.54027 180.449 4.2144C180.65 3.86347 180.863 3.51253 181.088 3.1616C181.314 2.7856 181.552 2.47227 181.803 2.2216C181.326 2.24667 180.838 2.27173 180.336 2.2968C179.835 2.2968 179.334 2.30933 178.832 2.3344V0.679999H186.503V1.9208C185.274 1.996 184.259 2.42213 183.457 3.1992C182.68 3.97627 181.853 5.16693 180.975 6.7712C180.123 8.37547 179.296 9.91707 178.494 11.396C177.717 12.8749 176.965 14.3163 176.238 15.72C176.238 16.1712 176.225 16.7728 176.2 17.5248C176.2 18.2768 176.2 19.0413 176.2 19.8184C176.2 20.5704 176.2 21.2096 176.2 21.736C176.2 22.2624 176.2 22.5256 176.2 22.5256C176.2 23.2024 176.188 23.7915 176.163 24.2928C176.163 24.7691 176.138 25.1701 176.087 25.496C176.614 25.4709 177.128 25.4459 177.629 25.4208C178.155 25.3957 178.682 25.3707 179.208 25.3456V27H170.372Z" fill="#121210"/>
</svg>
